<svg id="visual" viewBox="0 0 960 540" width="960" height="540" xmlns="http://www.w3.org/2000/svg" xmlns:xlink="http://www.w3.org/1999/xlink" version="1.1"><rect x="0" y="0" width="960" height="540" fill="#002233"></rect><path d="M0 395L22.8 386.2C45.7 377.3 91.3 359.7 137 366.5C182.7 373.3 228.3 404.7 274 420.8C319.7 437 365.3 438 411.2 427.3C457 416.7 503 394.3 548.8 383.8C594.7 373.3 640.3 374.7 686 377.5C731.7 380.3 777.3 384.7 823 378.8C868.7 373 914.3 357 937.2 349L960 341L960 541L937.2 541C914.3 541 868.7 541 823 541C777.3 541 731.7 541 686 541C640.3 541 594.7 541 548.8 541C503 541 457 541 411.2 541C365.3 541 319.7 541 274 541C228.3 541 182.7 541 137 541C91.3 541 45.7 541 22.8 541L0 541Z" fill="#0066FF" stroke-linecap="round" stroke-linejoin="miter"></path></svg>